<!-- Ecosounds roundel variant: the globe centred on Australia. Ocean is the
     theme colour; land is drawn as waveform samples. Geometry sampled from
     the world.geo.json AUS outline (equirectangular, mid-lat corrected). -->
<svg id="ecosounds-logo-circle-earth" data-name="v11 earth roundel" xmlns="http://www.w3.org/2000/svg" viewBox="0 0 72 72">
  <defs>
    <style>
      #ecosounds-logo-circle-earth .ocean {
        fill: var(--ecosounds-logo-accent-color, #00467f);
      }

      #ecosounds-logo-circle-earth .bar {
        fill: var(--ecosounds-logo-roundel-wave-color, #ffffff);
      }
    </style>
  </defs>
  <circle class="ocean" cx="36" cy="36" r="36"/>
  <g transform="translate(7.2 9.7) scale(0.57)">
    <rect class="bar" x="0.00" y="32.67" width="2.4" height="13.15" rx="1.2"/>
    <rect class="bar" x="3.80" y="30.47" width="2.4" height="26.41" rx="1.2"/>
    <rect class="bar" x="3.80" y="63.97" width="2.4" height="2.40" rx="1.2"/>
    <rect class="bar" x="7.60" y="28.04" width="2.4" height="40.22" rx="1.2"/>
    <rect class="bar" x="11.40" y="27.11" width="2.4" height="40.55" rx="1.2"/>
    <rect class="bar" x="15.20" y="25.98" width="2.4" height="39.33" rx="1.2"/>
    <rect class="bar" x="19.00" y="23.63" width="2.4" height="41.34" rx="1.2"/>
    <rect class="bar" x="22.80" y="16.14" width="2.4" height="48.99" rx="1.2"/>
    <rect class="bar" x="26.60" y="13.37" width="2.4" height="48.88" rx="1.2"/>
    <rect class="bar" x="30.40" y="10.26" width="2.4" height="50.26" rx="1.2"/>
    <rect class="bar" x="34.20" y="9.72" width="2.4" height="50.45" rx="1.2"/>
    <rect class="bar" x="38.00" y="11.84" width="2.4" height="47.12" rx="1.2"/>
    <rect class="bar" x="41.80" y="5.20" width="2.4" height="53.27" rx="1.2"/>
    <rect class="bar" x="45.60" y="0.58" width="2.4" height="2.40" rx="1.2"/>
    <rect class="bar" x="45.60" y="4.31" width="2.4" height="55.25" rx="1.2"/>
    <rect class="bar" x="49.40" y="3.26" width="2.4" height="57.49" rx="1.2"/>
    <rect class="bar" x="53.20" y="4.33" width="2.4" height="62.42" rx="1.2"/>
    <rect class="bar" x="57.00" y="3.78" width="2.4" height="2.40" rx="1.2"/>
    <rect class="bar" x="57.00" y="14.22" width="2.4" height="50.85" rx="1.2"/>
    <rect class="bar" x="60.80" y="17.16" width="2.4" height="49.94" rx="1.2"/>
    <rect class="bar" x="60.80" y="68.40" width="2.4" height="2.40" rx="1.2"/>
    <rect class="bar" x="64.60" y="19.33" width="2.4" height="53.50" rx="1.2"/>
    <rect class="bar" x="68.40" y="15.22" width="2.4" height="62.01" rx="1.2"/>
    <rect class="bar" x="72.20" y="3.13" width="2.4" height="75.08" rx="1.2"/>
    <rect class="bar" x="76.00" y="10.09" width="2.4" height="66.95" rx="1.2"/>
    <rect class="bar" x="79.80" y="17.81" width="2.4" height="61.10" rx="1.2"/>
    <rect class="bar" x="79.80" y="84.95" width="2.4" height="6.72" rx="1.2"/>
    <rect class="bar" x="83.60" y="24.67" width="2.4" height="52.44" rx="1.2"/>
    <rect class="bar" x="83.60" y="84.62" width="2.4" height="6.12" rx="1.2"/>
    <rect class="bar" x="87.40" y="28.74" width="2.4" height="47.25" rx="1.2"/>
    <rect class="bar" x="91.20" y="33.26" width="2.4" height="36.14" rx="1.2"/>
    <rect class="bar" x="95.00" y="38.57" width="2.4" height="23.51" rx="1.2"/>
    <rect class="bar" x="98.80" y="47.68" width="2.4" height="2.40" rx="1.2"/>
  </g>
</svg>
